<svg version="1.1" id="Layer_1" xmlns="http://www.w3.org/2000/svg" xmlns:xlink="http://www.w3.org/1999/xlink" x="0px" y="0px"
	 width="100%" viewBox="0 0 225 225" enable-background="new 0 0 225 225" xml:space="preserve">
<path fill="#563D7C" opacity="1.000000" stroke="none" 
	d="
M1.000000,203.000000 
	C1.000000,143.645767 1.000000,84.291542 1.316455,24.297268 
	C4.804476,11.342681 13.226608,4.443212 25.000000,1.000000 
	C83.687561,1.000000 142.375122,1.000000 201.714661,1.322707 
	C203.651260,1.959483 204.965622,2.184424 206.215866,2.601592 
	C217.128845,6.242961 222.826599,14.511189 226.000000,25.000000 
	C226.000000,84.020897 226.000000,143.041794 225.683258,202.702316 
	C222.200577,215.662079 213.750443,222.532791 202.000000,226.000000 
	C142.979111,226.000000 83.958206,226.000000 24.297142,225.683624 
	C16.950201,223.573929 11.061383,220.324738 7.098362,214.550018 
	C4.651313,210.984314 3.005516,206.868729 1.000000,203.000000 
M64.206703,159.499802 
	C64.206703,166.766235 64.206703,174.032669 64.206703,181.367020 
	C65.444611,181.548859 66.081116,181.723785 66.717712,181.724091 
	C88.698463,181.734894 110.679390,181.680084 132.659897,181.752609 
	C140.307251,181.777847 147.539658,180.010117 154.527878,177.161270 
	C169.970978,170.865692 178.339630,159.419678 178.435806,142.628189 
	C178.526749,126.750534 172.269440,114.599976 156.663879,108.588028 
	C156.093674,108.368347 155.608643,107.927628 154.706192,107.346832 
	C156.335510,106.251663 157.679077,105.347328 159.023880,104.444832 
	C170.169418,96.965012 173.234283,86.054573 171.740051,73.488647 
	C170.270721,61.132023 163.739868,52.187763 151.623230,48.815468 
	C144.034500,46.703377 135.967575,45.595322 128.082123,45.404617 
	C108.610420,44.933723 89.119652,45.244926 69.636566,45.261318 
	C67.887947,45.262787 66.139442,45.406204 64.206703,45.491867 
	C64.206703,83.578514 64.206703,121.039162 64.206703,159.499802 
z"/>
<path fill="#FBFBFC" opacity="1.000000" stroke="none" 
	d="
M226.000000,24.531307 
	C222.826599,14.511189 217.128845,6.242961 206.215866,2.601592 
	C204.965622,2.184424 203.651260,1.959483 202.183319,1.322707 
	C209.926331,1.000000 217.852676,1.000000 226.000000,1.000000 
	C226.000000,8.686132 226.000000,16.374374 226.000000,24.531307 
z"/>
<path fill="#FBFBFC" opacity="1.000000" stroke="none" 
	d="
M24.531307,1.000000 
	C13.226608,4.443212 4.804476,11.342681 1.316455,23.828609 
	C1.000000,16.405445 1.000000,8.810891 1.000000,1.000000 
	C8.686191,1.000000 16.374403,1.000000 24.531307,1.000000 
z"/>
<path fill="#FBFBFC" opacity="1.000000" stroke="none" 
	d="
M202.468689,226.000000 
	C213.750443,222.532791 222.200577,215.662079 225.683258,203.170975 
	C226.000000,210.594559 226.000000,218.189102 226.000000,226.000000 
	C218.313812,226.000000 210.625595,226.000000 202.468689,226.000000 
z"/>
<path fill="#FBFBFC" opacity="1.000000" stroke="none" 
	d="
M1.000000,203.468735 
	C3.005516,206.868729 4.651313,210.984314 7.098362,214.550018 
	C11.061383,220.324738 16.950201,223.573929 23.828484,225.683624 
	C16.407045,226.000000 8.814093,226.000000 1.000000,226.000000 
	C1.000000,218.647293 1.000000,211.292389 1.000000,203.468735 
z"/>
<path fill="#FDFDFD" opacity="1.000000" stroke="none" 
	d="
M64.206703,158.999817 
	C64.206703,121.039162 64.206703,83.578514 64.206703,45.491867 
	C66.139442,45.406204 67.887947,45.262787 69.636566,45.261318 
	C89.119652,45.244926 108.610420,44.933723 128.082123,45.404617 
	C135.967575,45.595322 144.034500,46.703377 151.623230,48.815468 
	C163.739868,52.187763 170.270721,61.132023 171.740051,73.488647 
	C173.234283,86.054573 170.169418,96.965012 159.023880,104.444832 
	C157.679077,105.347328 156.335510,106.251663 154.706192,107.346832 
	C155.608643,107.927628 156.093674,108.368347 156.663879,108.588028 
	C172.269440,114.599976 178.526749,126.750534 178.435806,142.628189 
	C178.339630,159.419678 169.970978,170.865692 154.527878,177.161270 
	C147.539658,180.010117 140.307251,181.777847 132.659897,181.752609 
	C110.679390,181.680084 88.698463,181.734894 66.717712,181.724091 
	C66.081116,181.723785 65.444611,181.548859 64.206703,181.367020 
	C64.206703,174.032669 64.206703,166.766235 64.206703,158.999817 
M126.103355,68.911911 
	C116.067833,68.946053 106.032303,68.980194 95.492577,68.908775 
	C95.343430,68.993874 95.194290,69.078972 94.394707,69.669243 
	C94.394707,79.757751 94.394707,89.846252 94.394707,100.015388 
	C106.595314,100.015388 118.380013,100.475113 130.102448,99.820297 
	C135.911774,99.495781 140.603119,96.057732 142.254105,89.677849 
	C145.195068,78.313126 140.167557,70.997452 127.505066,69.029465 
	C127.505066,69.029465 127.025459,69.111427 126.103355,68.911911 
M95.487106,158.089600 
	C95.656708,158.054901 95.826309,158.020218 96.917343,158.172989 
	C108.284523,158.075027 119.651711,157.977066 131.494751,157.965729 
	C131.494751,157.965729 131.957550,157.825104 132.718277,157.893234 
	C139.609528,156.610825 145.981979,153.989731 147.547638,146.499802 
	C150.124268,134.173401 147.656143,122.141052 128.330032,121.025040 
	C127.899109,121.060387 127.468178,121.095726 126.107162,120.971718 
	C116.065132,121.020676 106.023094,121.069633 95.505508,121.029121 
	C95.505508,121.029121 95.064034,121.227272 94.382507,121.682594 
	C94.342422,130.174240 94.223358,138.666611 94.299835,147.157211 
	C94.331902,150.717331 94.778252,154.273743 95.487106,158.089600 
z"/>
<path fill="#573E7D" opacity="1.000000" stroke="none" 
	d="
M128.967896,121.154617 
	C147.656143,122.141052 150.124268,134.173401 147.547638,146.499802 
	C145.981979,153.989731 139.609528,156.610825 132.220398,157.809418 
	C131.471512,157.654068 131.236969,157.705246 131.018890,157.879089 
	C119.651711,157.977066 108.284523,158.075027 96.347534,158.004761 
	C95.541817,157.704132 95.294662,157.702560 95.036255,157.831833 
	C94.778252,154.273743 94.331902,150.717331 94.299835,147.157211 
	C94.223358,138.666611 94.342422,130.174240 94.843178,121.501968 
	C95.303848,121.321350 95.660316,121.326523 95.660316,121.326523 
	C95.660316,121.326523 95.981064,121.118584 95.981064,121.118591 
	C106.023094,121.069633 116.065132,121.020676 126.746315,121.184639 
	C127.912941,121.316582 128.440414,121.235596 128.967896,121.154617 
z"/>
<path fill="#573E7D" opacity="1.000000" stroke="none" 
	d="
M95.996780,69.014328 
	C106.032303,68.980194 116.067833,68.946053 126.677124,69.075134 
	C127.250885,69.238358 127.614914,69.295761 127.614914,69.295761 
	C127.614914,69.295761 127.973640,69.160545 127.973640,69.160545 
	C140.167557,70.997452 145.195068,78.313126 142.254105,89.677849 
	C140.603119,96.057732 135.911774,99.495781 130.102448,99.820297 
	C118.380013,100.475113 106.595314,100.015388 94.394707,100.015388 
	C94.394707,89.846252 94.394707,79.757751 94.844475,69.455811 
	C95.556419,69.287392 95.790604,69.211372 95.996780,69.014328 
z"/>
<path fill="#432170" opacity="1.000000" stroke="none" 
	d="
M128.648956,121.089828 
	C128.440414,121.235596 127.912941,121.316582 127.211365,121.264313 
	C127.468178,121.095726 127.899109,121.060387 128.648956,121.089828 
z"/>
<path fill="#492A74" opacity="1.000000" stroke="none" 
	d="
M95.744675,68.961548 
	C95.790604,69.211372 95.556419,69.287392 95.169693,69.203224 
	C95.194290,69.078972 95.343430,68.993874 95.744675,68.961548 
z"/>
<path fill="#492A74" opacity="1.000000" stroke="none" 
	d="
M127.739349,69.095001 
	C127.973640,69.160545 127.614914,69.295761 127.614914,69.295761 
	C127.614914,69.295761 127.250885,69.238358 127.138168,69.174896 
	C127.025459,69.111427 127.505066,69.029465 127.739349,69.095001 
z"/>
<path fill="#432170" opacity="1.000000" stroke="none" 
	d="
M95.743286,121.073853 
	C95.981064,121.118584 95.660316,121.326523 95.660316,121.326523 
	C95.660316,121.326523 95.303848,121.321350 95.183945,121.274307 
	C95.064034,121.227272 95.505508,121.029121 95.743286,121.073853 
z"/>
<path fill="#492A74" opacity="1.000000" stroke="none" 
	d="
M95.261681,157.960724 
	C95.294662,157.702560 95.541817,157.704132 95.886818,157.911041 
	C95.826309,158.020218 95.656708,158.054901 95.261681,157.960724 
z"/>
<path fill="#492A74" opacity="1.000000" stroke="none" 
	d="
M131.256821,157.922409 
	C131.236969,157.705246 131.471512,157.654068 131.840027,157.775345 
	C131.957550,157.825104 131.494751,157.965729 131.256821,157.922409 
z"/>
</svg>