<svg width="102" height="28" viewBox="0 0 102 28" fill="none" xmlns="http://www.w3.org/2000/svg">
<rect width="102" height="28" fill="#F5F5F5"/>
<g id="Dark Mode">
<g id="Home / Desktop / Dark" clip-path="url(#clip0_0_1)">
<rect width="1440" height="6498" transform="translate(-304 -2390)" fill="white"/>
<g id="Experience">
<rect width="1440" height="1140" transform="translate(-304 -248)" fill="#111827"/>
<g id="Container">
<g id="Row" filter="url(#filter0_d_0_1)">
<rect x="-32" y="-32" width="896" height="288" rx="12" fill="#1F2937"/>
<g id="Row_2" clip-path="url(#clip1_0_1)">
<g id="Column">
<g id="logo-upwork" clip-path="url(#clip2_0_1)">
<g id="Clip path group">
<mask id="mask0_0_1" style="mask-type:luminance" maskUnits="userSpaceOnUse" x="0" y="0" width="102" height="28">
<g id="clip0_258_2">
<path id="Vector" d="M102 0H0V28H102V0Z" fill="white"/>
</g>
</mask>
<g mask="url(#mask0_0_1)">
<g id="Group">
<path id="Vector_2" d="M28.1801 19.0599C27.1348 19.0017 26.1187 18.6934 25.2173 18.1609C24.3159 17.6285 23.5555 16.8874 23.0001 15.9999C23.6701 10.6599 25.6201 8.99994 28.2001 8.99994C30.7801 8.99994 32.7401 10.9999 32.7401 13.9999C32.7401 16.9999 30.7401 18.9999 28.2001 18.9999M28.2001 5.65994C26.3793 5.58616 24.5906 6.15465 23.1465 7.26604C21.7025 8.37743 20.6949 9.961 20.3001 11.7399C19.4441 9.94652 18.7965 8.06087 18.3701 6.11994H12.0001V14.0199C12.0001 16.8899 10.7001 19.0199 8.15008 19.0199C5.60008 19.0199 4.15008 16.8999 4.15008 14.0199V6.11994H0.490084V14.0199C0.407019 16.2091 1.16158 18.3476 2.60008 19.9999C3.30222 20.7644 4.15993 21.3697 5.11552 21.7751C6.0711 22.1804 7.10242 22.3764 8.14008 22.3499C12.5501 22.3499 15.6401 18.9599 15.6401 14.1099V8.76994C16.389 11.6434 17.6271 14.3666 19.3001 16.8199L17.3401 27.9999H21.0601L22.3501 20.0799C22.7771 20.4476 23.2318 20.7819 23.7101 21.0799C24.9528 21.8648 26.3812 22.3065 27.8501 22.3599H28.1901C29.2827 22.3713 30.3664 22.1615 31.3758 21.743C32.3853 21.3246 33.2996 20.7063 34.0638 19.9253C34.828 19.1442 35.4263 18.2167 35.8227 17.1984C36.219 16.1801 36.4052 15.0921 36.3701 13.9999C36.3956 12.9118 36.2021 11.8297 35.801 10.8178C35.4 9.80594 34.7996 8.88503 34.0356 8.10982C33.2716 7.33461 32.3595 6.72091 31.3536 6.3052C30.3477 5.88949 29.2685 5.68026 28.1801 5.68994" fill="#14A800"/>
<path id="Vector_3" d="M80.8002 7.85995V6.17995H77.2002V21.81H80.8502V15.69C80.8502 11.92 81.1902 9.20995 86.2502 9.55995V5.99995C83.8902 5.81995 82.0502 6.30995 80.8002 7.86995" fill="#14A800"/>
<path id="Vector_4" d="M55.5098 6.16992L52.8698 17.1099L50.0498 6.16992H45.4098L42.5898 17.1099L39.9498 6.16992H36.2598L40.3098 21.8199H44.6898L47.7298 10.7099L50.7398 21.8199H55.1198L59.3998 6.16992H55.5098Z" fill="#14A800"/>
<path id="Vector_5" d="M67.4201 19.07C64.8301 19.07 62.8901 17.02 62.8901 14.07C62.8901 11.12 64.8901 9.06997 67.4201 9.06997C69.9501 9.06997 72.0001 11 72.0001 14C72.0001 17 70.0001 19 67.4601 19M67.4601 5.64997C66.3658 5.63458 65.2798 5.84111 64.2675 6.25709C63.2552 6.67306 62.3377 7.28985 61.5705 8.07023C60.8032 8.8506 60.202 9.77838 59.8032 10.7975C59.4044 11.8167 59.2162 12.9061 59.2501 14C59.2117 15.0976 59.3948 16.1917 59.7883 17.217C60.1818 18.2424 60.7778 19.178 61.5407 19.9681C62.3037 20.7581 63.2179 21.3865 64.2288 21.8156C65.2398 22.2448 66.3268 22.4659 67.4251 22.4659C68.5234 22.4659 69.6104 22.2448 70.6214 21.8156C71.6324 21.3865 72.5466 20.7581 73.3095 19.9681C74.0724 19.178 74.6684 18.2424 75.0619 17.217C75.4555 16.1917 75.6385 15.0976 75.6001 14C75.627 12.9123 75.4347 11.8304 75.0348 10.8186C74.6349 9.80676 74.0355 8.88576 73.2723 8.1104C72.509 7.33504 71.5976 6.72117 70.5922 6.30535C69.5868 5.88953 68.5081 5.68025 67.4201 5.68997" fill="#14A800"/>
<path id="Vector_6" d="M91.4703 14.13H92.3103L97.4003 21.82H101.51L95.6603 13.29C97.0673 12.7098 98.2696 11.7237 99.1138 10.4574C99.958 9.19104 100.406 7.70193 100.4 6.18H96.7703C96.7703 9.55 94.1103 10.83 91.4703 10.83V0H87.8203V21.82H91.4603L91.4703 14.13Z" fill="#14A800"/>
</g>
</g>
</g>
</g>
</g>
</g>
</g>
</g>
</g>
</g>
</g>
<defs>
<filter id="filter0_d_0_1" x="-57" y="-32" width="946" height="338" filterUnits="userSpaceOnUse" color-interpolation-filters="sRGB">
<feFlood flood-opacity="0" result="BackgroundImageFix"/>
<feColorMatrix in="SourceAlpha" type="matrix" values="0 0 0 0 0 0 0 0 0 0 0 0 0 0 0 0 0 0 127 0" result="hardAlpha"/>
<feOffset dy="25"/>
<feGaussianBlur stdDeviation="12.5"/>
<feComposite in2="hardAlpha" operator="out"/>
<feColorMatrix type="matrix" values="0 0 0 0 0 0 0 0 0 0 0 0 0 0 0 0 0 0 0.15 0"/>
<feBlend mode="normal" in2="BackgroundImageFix" result="effect1_dropShadow_0_1"/>
<feBlend mode="normal" in="SourceGraphic" in2="effect1_dropShadow_0_1" result="shape"/>
</filter>
<clipPath id="clip0_0_1">
<rect width="1440" height="6498" fill="white" transform="translate(-304 -2390)"/>
</clipPath>
<clipPath id="clip1_0_1">
<rect width="832" height="224" fill="white"/>
</clipPath>
<clipPath id="clip2_0_1">
<rect width="102" height="28" fill="white"/>
</clipPath>
</defs>
</svg>
